<svg xmlns="http://www.w3.org/2000/svg" viewBox="0 0 60 61" id="svg11534990855"><path d="M 59.85 29.625 C 59.75 29.582 59.66 29.6 59.584 29.677 L 50.317 39.005 L 50.317 20.103 C 50.317 19.995 50.265 19.919 50.165 19.878 C 50.065 19.836 49.976 19.853 49.9 19.93 L 40.633 29.258 L 40.633 10.357 C 40.625 10.255 40.573 10.184 40.48 10.148 C 40.384 10.11 40.3 10.126 40.225 10.195 L 30.958 19.523 L 30.958 0.621 C 30.955 0.514 30.905 0.44 30.808 0.4 C 30.71 0.359 30.622 0.374 30.545 0.448 L 0.07 31.137 C -0.003 31.214 -0.019 31.302 0.022 31.4 C 0.063 31.499 0.136 31.549 0.242 31.551 L 19.009 31.551 L 9.753 40.879 C 9.676 40.956 9.659 41.046 9.7 41.146 C 9.742 41.247 9.817 41.297 9.925 41.297 L 28.688 41.297 L 19.429 50.625 C 19.353 50.704 19.336 50.792 19.376 50.893 C 19.418 50.994 19.492 51.044 19.601 51.044 L 38.368 51.044 L 29.107 60.372 C 29.032 60.45 29.013 60.539 29.056 60.639 C 29.096 60.74 29.171 60.79 29.279 60.79 L 59.756 60.79 C 59.823 60.79 59.881 60.767 59.928 60.72 C 59.976 60.671 60 60.614 60 60.545 L 60 29.861 C 60.004 29.748 59.954 29.669 59.85 29.625 Z M 0.832 31.06 L 30.475 1.215 L 30.475 20.014 L 19.497 31.06 Z M 30.475 20.698 L 30.475 31.06 L 20.186 31.06 Z M 10.511 40.808 L 19.698 31.551 L 30.719 31.551 C 30.786 31.551 30.844 31.527 30.891 31.48 C 30.939 31.431 30.963 31.373 30.963 31.306 L 30.963 20.212 L 40.155 10.956 L 40.155 29.754 L 29.179 40.808 Z M 40.155 30.446 L 40.155 40.807 L 29.865 40.807 Z M 20.189 50.551 L 29.378 41.299 L 40.398 41.299 C 40.466 41.299 40.522 41.275 40.57 41.227 C 40.617 41.179 40.642 41.121 40.642 41.054 L 40.642 29.955 L 49.833 20.698 L 49.833 39.496 L 38.859 50.551 Z M 49.833 40.191 L 49.833 50.551 L 39.545 50.551 Z M 59.512 60.295 L 29.873 60.295 L 39.06 51.042 L 50.076 51.042 C 50.144 51.042 50.201 51.019 50.25 50.97 C 50.297 50.923 50.32 50.865 50.32 50.797 L 50.32 39.7 L 59.512 30.446 Z" fill="currentColor"/></svg>