<?xml version="1.0" standalone="no"?>
<!DOCTYPE svg PUBLIC "-//W3C//DTD SVG 20010904//EN" "http://www.w3.org/TR/2001/REC-SVG-20010904/DTD/svg10.dtd">
<svg xmlns="http://www.w3.org/2000/svg" version="1.0" width="187.000000pt" height="187.000000pt" viewBox="0 0 187.000000 187.000000" preserveAspectRatio="xMidYMid meet">
<metadata>
Created by potrace 1.16, written by Peter Selinger 2001-2019
<meta name="Producer" content="Online-Convert"/></metadata>
<g transform="translate(0.000000,187.000000) scale(0.100000,-0.100000)" fill="#000000" stroke="none">
<path d="M930 1832 c0 -139 -64 -339 -150 -470 -159 -242 -415 -394 -702 -418 -87 -8 -96 -24 -12 -24 116 0 287 -52 408 -123 257 -150 428 -422 452 -718 4 -44 10 -79 14 -79 4 0 10 39 13 88 15 215 101 397 267 562 165 166 347 252 563 267 48 3 87 9 87 13 0 4 -34 10 -75 13 -408 35 -747 334 -829 730 -9 42 -16 101 -16 131 0 30 -4 58 -10 61 -6 4 -10 -9 -10 -33z m29 -202 c40 -157 116 -292 232 -415 125 -132 306 -234 474 -268 l70 -14 -60 -13 c-368 -77 -646 -360 -731 -745 -6 -27 -8 -22 -24 45 -40 164 -121 311 -239 433 -122 128 -273 215 -447 259 l-89 22 44 8 c269 46 528 244 658 503 36 70 83 215 83 252 0 39 6 27 29 -67z"/>
</g>
</svg>
