<?xml version="1.0" standalone="no"?>
<!DOCTYPE svg PUBLIC "-//W3C//DTD SVG 20010904//EN"
 "http://www.w3.org/TR/2001/REC-SVG-20010904/DTD/svg10.dtd">
<svg version="1.0" xmlns="http://www.w3.org/2000/svg"
 width="156.000000pt" height="203.000000pt" viewBox="0 0 156.000000 203.000000"
 preserveAspectRatio="xMidYMid meet">

<g transform="translate(0.000000,203.000000) scale(0.100000,-0.100000)"
fill="#000000" stroke="none">
<path d="M753 2008 c-11 -13 -105 -135 -209 -273 -104 -137 -269 -355 -366
-484 -111 -146 -175 -238 -170 -246 16 -28 757 -1004 763 -1005 3 0 136 172
296 383 159 210 332 437 383 505 80 105 92 126 83 141 -14 22 -731 970 -748
989 -9 10 -15 8 -32 -10z m88 -90 l20 -28 -40 0 -41 0 0 53 0 52 21 -25 c11
-14 29 -37 40 -52z m-81 -418 l0 -480 -366 0 c-201 0 -364 4 -362 8 5 14 719
952 724 952 2 0 4 -216 4 -480z m159 315 l42 -55 -91 0 -90 0 0 55 0 55 49 0
c47 0 50 -2 90 -55z m94 -125 c20 -27 37 -52 37 -55 0 -3 -61 -5 -135 -5
l-135 0 0 55 0 55 98 0 98 0 37 -50z m100 -129 c20 -27 37 -52 37 -55 0 -3
-83 -6 -185 -6 l-185 0 0 55 0 55 148 0 147 -1 38 -48z m92 -123 c17 -23 34
-48 38 -55 7 -11 -35 -13 -228 -13 l-235 0 0 55 0 55 198 0 197 0 30 -42z m90
-120 c72 -85 92 -78 -230 -78 l-285 0 0 53 c0 30 3 57 7 60 3 4 111 7 239 7
l232 0 37 -42z m108 -141 c29 -40 34 -53 23 -57 -9 -3 -157 -4 -331 -2 l-315
3 0 54 0 55 293 0 292 -1 38 -52z m81 -110 c15 -19 26 -37 26 -40 0 -4 -164
-7 -365 -7 l-365 0 0 40 0 40 339 0 340 0 25 -33z m23 -71 c-3 -8 -106 -147
-228 -308 -122 -161 -279 -367 -347 -458 -69 -91 -131 -172 -138 -180 -12 -12
-14 62 -14 473 l0 487 366 0 c314 0 365 -2 361 -14z"/>
</g>
</svg>
